<svg height="64" viewBox="0 0 135.46667 135.46667" width="64" xmlns="http://www.w3.org/2000/svg">
  <path d="m150.60476 79.021017-48.66473 12.756843-6.992337 12.37857-14.646651-.18862-35.624182 34.58445 35.71875 34.77411 14.457515-.28371 7.181475 12.47314 48.66473 12.56771 12.94546-47.15267-7.37061-12.28401 7.46518-12.284zm-22.934 19.177641c-15.92304 11.294432-28.759421 28.117172-30.323143 42.451832 1.161616.36377 3.516793.69892 4.194573.71882 4.21129-15.03215 25.13168-36.17676 41.93743-39.13421l10.43243 36.31716-9.06663 31.56293c-2.18315-19.44784-12.42601-37.6614-24.27446-45.9565-.87795.84314-2.30523 2.74602-2.64894 3.33054 10.84581 10.62865 20.60164 36.62732 16.16799 53.01551l-38.103103-9.44645-22.562965-22.36711c17.803029 7.92335 37.464148 9.09691 50.576208 3.17462-.27681-1.18535-1.18489-3.38411-1.51205-3.97805-15.03493 3.99554-42.434964-1.91319-53.620984-14.78373l27.214359-27.05778z" transform="translate(-36.474775 -70.818932)"/>
</svg>
